<?xml version="1.0" encoding="utf-8"?>
<!-- Generator: Adobe Illustrator 24.0.2, SVG Export Plug-In . SVG Version: 6.00 Build 0)  -->
<svg width="250" height="37" version="1.1" id="Слой_1" xmlns="http://www.w3.org/2000/svg" xmlns:xlink="http://www.w3.org/1999/xlink" x="0px" y="0px"
	 viewBox="0 0 250 37" style="enable-background:new 0 0 250 37;" xml:space="preserve">
<style type="text/css">
	.st0{opacity:0.86;}
	.st1{fill:#FFFFFF;}
	.st2{fill:none;}
	.st3{fill:#AF9A7D;}
</style>
<g class="st0">
	<rect x="2" y="2" class="st1" width="246" height="33"/>
	<path d="M246,4v29H4V4H246 M250,0H0v37h250V0L250,0z"/>
</g>
<g>
	<rect x="28.57" y="6.55" class="st2" width="100.43" height="28.45"/>
	<path d="M31.31,8.17c1.58-0.32,3.85-0.5,6.01-0.5c3.35,0,5.51,0.61,7.02,1.98c1.22,1.08,1.91,2.74,1.91,4.61
		c0,3.2-2.02,5.33-4.57,6.19v0.11c1.87,0.65,2.99,2.38,3.56,4.9c0.79,3.38,1.37,5.72,1.87,6.66h-3.24c-0.4-0.68-0.94-2.77-1.62-5.79
		c-0.72-3.35-2.02-4.61-4.86-4.72h-2.95v10.51h-3.13V8.17z M34.44,19.22h3.2c3.35,0,5.47-1.84,5.47-4.61c0-3.13-2.27-4.5-5.58-4.54
		c-1.51,0-2.59,0.14-3.1,0.29V19.22z"/>
	<path d="M52.48,23.97c0.07,4.28,2.81,6.05,5.98,6.05c2.27,0,3.64-0.4,4.82-0.9l0.54,2.27c-1.12,0.5-3.02,1.08-5.8,1.08
		c-5.36,0-8.57-3.53-8.57-8.78c0-5.26,3.1-9.4,8.17-9.4c5.69,0,7.2,5,7.2,8.21c0,0.65-0.07,1.15-0.11,1.48H52.48z M61.76,21.71
		c0.04-2.02-0.83-5.15-4.39-5.15c-3.2,0-4.61,2.95-4.86,5.15H61.76z"/>
	<path d="M78.39,32.11l-0.25-2.2h-0.11c-0.97,1.37-2.84,2.59-5.33,2.59c-3.53,0-5.33-2.48-5.33-5c0-4.21,3.74-6.52,10.47-6.48v-0.36
		c0-1.44-0.4-4.03-3.96-4.03c-1.62,0-3.31,0.5-4.54,1.3l-0.72-2.09c1.44-0.94,3.53-1.55,5.72-1.55c5.33,0,6.62,3.64,6.62,7.13v6.51
		c0,1.51,0.07,2.99,0.29,4.18H78.39z M77.93,23.22c-3.46-0.07-7.38,0.54-7.38,3.92c0,2.05,1.37,3.02,2.99,3.02
		c2.27,0,3.71-1.44,4.21-2.92c0.11-0.32,0.18-0.68,0.18-1.01V23.22z"/>
	<path d="M86.1,6.55h3.17v25.56H86.1V6.55z"/>
</g>
<g>
	<path class="st3" d="M137.05,19.03h-9.43v8.75h10.51v2.63h-13.64V6.15h13.1v2.63h-9.97v7.67h9.43V19.03z"/>
	<path class="st3" d="M141.66,27.17c0.94,0.61,2.59,1.26,4.18,1.26c2.3,0,3.38-1.15,3.38-2.59c0-1.51-0.9-2.34-3.24-3.2
		c-3.13-1.12-4.61-2.84-4.61-4.93c0-2.81,2.27-5.11,6.01-5.11c1.76,0,3.31,0.5,4.28,1.08l-0.79,2.3c-0.68-0.43-1.94-1.01-3.56-1.01
		c-1.87,0-2.92,1.08-2.92,2.38c0,1.44,1.04,2.09,3.31,2.95c3.02,1.15,4.57,2.66,4.57,5.26c0,3.06-2.38,5.22-6.52,5.22
		c-1.91,0-3.67-0.47-4.89-1.19L141.66,27.17z"/>
	<path class="st3" d="M160.16,7.98v5h4.54v2.41h-4.54v9.4c0,2.16,0.61,3.38,2.38,3.38c0.83,0,1.44-0.11,1.83-0.21l0.14,2.38
		c-0.61,0.25-1.58,0.43-2.81,0.43c-1.48,0-2.66-0.47-3.42-1.33c-0.9-0.94-1.22-2.48-1.22-4.54v-9.5h-2.7v-2.41h2.7V8.81L160.16,7.98
		z"/>
	<path class="st3" d="M177.91,30.41l-0.25-2.2h-0.11c-0.97,1.37-2.84,2.59-5.33,2.59c-3.53,0-5.33-2.48-5.33-5
		c0-4.21,3.74-6.52,10.47-6.48v-0.36c0-1.44-0.4-4.03-3.96-4.03c-1.62,0-3.31,0.5-4.54,1.3l-0.72-2.09
		c1.44-0.94,3.53-1.55,5.72-1.55c5.33,0,6.62,3.64,6.62,7.13v6.51c0,1.51,0.07,2.99,0.29,4.18H177.91z M177.44,21.52
		c-3.46-0.07-7.38,0.54-7.38,3.92c0,2.05,1.37,3.02,2.99,3.02c2.27,0,3.71-1.44,4.21-2.92c0.11-0.32,0.18-0.68,0.18-1.01V21.52z"/>
	<path class="st3" d="M189.28,7.98v5h4.54v2.41h-4.54v9.4c0,2.16,0.61,3.38,2.38,3.38c0.83,0,1.44-0.11,1.83-0.21l0.14,2.38
		c-0.61,0.25-1.58,0.43-2.81,0.43c-1.48,0-2.66-0.47-3.42-1.33c-0.9-0.94-1.22-2.48-1.22-4.54v-9.5h-2.7v-2.41h2.7V8.81L189.28,7.98
		z"/>
	<path class="st3" d="M198.93,22.27c0.07,4.28,2.81,6.05,5.97,6.05c2.27,0,3.64-0.4,4.82-0.9l0.54,2.27
		c-1.12,0.5-3.02,1.08-5.8,1.08c-5.36,0-8.57-3.53-8.57-8.78c0-5.26,3.1-9.4,8.17-9.4c5.69,0,7.2,5,7.2,8.21
		c0,0.65-0.07,1.15-0.11,1.48H198.93z M208.22,20.01c0.04-2.02-0.83-5.15-4.39-5.15c-3.2,0-4.61,2.95-4.86,5.15H208.22z"/>
</g>
<g>
</g>
<g>
</g>
<g>
</g>
<g>
</g>
<g>
</g>
<g>
</g>
<g>
</g>
<g>
</g>
<g>
</g>
<g>
</g>
<g>
</g>
<g>
</g>
<g>
</g>
<g>
</g>
<g>
</g>
</svg>
